# xmcd
#
# Track frame offsets:
#	182
#	25000
#	49157
#
# Disc length: 928 seconds
#
# Revision: 0
# Processed by: cddbd v1.5.1PL2 Copyright (c) Steve Scherf et al.
# Submitted via: audiograbber 1.82.01
#
DISCID=1b039e03
DTITLE=German-British-Friendship - Als der Schnee fiel
DYEAR=1900
DGENRE=
TTITLE0=Als der Schnee fiel
TTITLE1=German-British-Friendship
TTITLE2=European Unity
EXTD=
EXTT0=
EXTT1=
EXTT2=
PLAYORDER=
